# xmcd
# 
# Track frame offsets:
#     150
#     38670
#     70415
#     91895
#     128170
#     155140
#     184097
#     205347
# 
# Disc length: 2978
# 
# Revision: 1
# Processed by: cddbd v1.5.2PL0 Copyright (c) Steve Scherf et al.
# Submitted via: BonkEnc v1.0.8
# 
DISCID=6d0ba008
DTITLE=Ivan Paduart - White Nighjts
DYEAR=1995
DGENRE=Contemporary Jazz
TTITLE0=Ecoline
TTITLE1=White Nights
TTITLE2=Steps In The Snow
TTITLE3=Fairy Tale
TTITLE4=Heartsong
TTITLE5=Between Us
TTITLE6=Guignolet Kirsch
TTITLE7=Closed Eyes
EXTD=
EXTT0=
EXTT1=
EXTT2=
EXTT3=
EXTT4=
EXTT5=
EXTT6=
EXTT7=
PLAYORDER=
